<?xml version="1.0" encoding="utf-8" standalone="yes"?>
<!DOCTYPE svg PUBLIC "-//W3C//DTD SVG 1.1//EN" "http://www.w3.org/Graphics/SVG/1.1/DTD/svg11.dtd">
<svg width="206" height="684" viewBox="0 0 206 684" style="fill:none;stroke:none;fill-rule:evenodd;clip-rule:evenodd;stroke-linecap:round;stroke-linejoin:round;stroke-miterlimit:1.5;" version="1.1" xmlns="http://www.w3.org/2000/svg" xmlns:xlink="http://www.w3.org/1999/xlink"><style id="fontImports">@import url("https://fonts.googleapis.com/css2?family=Roboto:wght@400;700&amp;display=block");</style><g id="items" style="isolation: isolate"><g id="blend" style="mix-blend-mode:multiply"><g id="g-root-ro_hun0c51fni32k-fill" data-item-order="-12096" data-item-id="ro_hun0c51fni32k" data-item-class="Shape Stroke Fill" data-item-index="none" data-renderer-id="0" transform="translate(9, 589)"><g id="ro_hun0c51fni32k-fill" stroke="none" fill="#e6f9ff"><g><path d="M 22 10L 166 10C 166 10 178 10 178 22L 178 70C 178 70 178 82 166 82L 22 82C 22 82 10 82 10 70L 10 22C 10 22 10 10 22 10"></path></g></g></g><g id="g-root-ro_1lu9egl1fnfa4k-fill" data-item-order="-11232" data-item-id="ro_1lu9egl1fnfa4k" data-item-class="Shape Stroke Fill" data-item-index="none" data-renderer-id="0" transform="translate(15, 113)"><g id="ro_1lu9egl1fnfa4k-fill" stroke="none" fill="#e6f9ff"><g><path d="M 22 10L 154 10C 154 10 166 10 166 22L 166 70C 166 70 166 82 154 82L 22 82C 22 82 10 82 10 70L 10 22C 10 22 10 10 22 10"></path></g></g></g><g id="g-root-ro_91ht9x1fnp4av-fill" data-item-order="-10368" data-item-id="ro_91ht9x1fnp4av" data-item-class="Shape Stroke Fill" data-item-index="none" data-renderer-id="0" transform="translate(21, 241)"><g id="ro_91ht9x1fnp4av-fill" stroke="none" fill="#e6f9ff"><g><path d="M 22 10L 142 10C 142 10 154 10 154 22L 154 70C 154 70 154 82 142 82L 22 82C 22 82 10 82 10 70L 10 22C 10 22 10 10 22 10"></path></g></g></g><g id="g-root-ro_hx4wol1fn9pu1-fill" data-item-order="-9720" data-item-id="ro_hx4wol1fn9pu1" data-item-class="Shape Stroke Fill" data-item-index="none" data-renderer-id="0" transform="translate(3, 369)"><g id="ro_hx4wol1fn9pu1-fill" stroke="none" fill="#e6f9ff"><g><path d="M 22 10L 178 10C 178 10 190 10 190 22L 190 52C 190 52 190 64 178 64L 22 64C 22 64 10 64 10 52L 10 22C 10 22 10 10 22 10"></path></g></g></g><g id="g-root-ro_znsg391fndvk5-fill" data-item-order="-9072" data-item-id="ro_znsg391fndvk5" data-item-class="Shape Stroke Fill" data-item-index="none" data-renderer-id="0" transform="translate(9, 479)"><g id="ro_znsg391fndvk5-fill" stroke="none" fill="#e6f9ff"><g><path d="M 22 10L 166 10C 166 10 178 10 178 22L 178 52C 178 52 178 64 166 64L 22 64C 22 64 10 64 10 52L 10 22C 10 22 10 10 22 10"></path></g></g></g><g id="g-root-ro_8xqvlh1fni39n-fill" data-item-order="-5832" data-item-id="ro_8xqvlh1fni39n" data-item-class="Shape Stroke Fill" data-item-index="none" data-renderer-id="0" transform="translate(39, 3)"><g id="ro_8xqvlh1fni39n-fill" stroke="none" fill="#f0f0f0"><g><path d="M 22 10L 106 10C 106 10 118 10 118 22L 118 52C 118 52 118 64 106 64L 22 64C 22 64 10 64 10 52L 10 22C 10 22 10 10 22 10"></path></g></g></g><g id="g-root-1_4jsvw51fnfb4b-fill" data-item-order="0" data-item-id="1_4jsvw51fnfb4b" data-item-class="Icon Stroke" data-item-index="none" data-renderer-id="0" transform="translate(27, 134)"></g><g id="g-root-tx_printpol_m8l3791fni41u-fill" data-item-order="0" data-item-id="tx_printpol_m8l3791fni41u" data-item-class="Label Stroke" data-item-index="none" data-renderer-id="0" transform="translate(57, 601)"><g id="tx_printpol_m8l3791fni41u-fill" stroke="none" fill="#17b0e3"><g><text style="font: 20px Roboto, sans-serif; white-space: pre;"><tspan x="12" y="34" dominant-baseline="ideographic">Print </tspan><tspan x="12" y="58" dominant-baseline="ideographic">Polynomial</tspan></text></g></g></g><g id="g-root-tx_start_1lqigs51fni41t-fill" data-item-order="0" data-item-id="tx_start_1lqigs51fni41t" data-item-class="Label Stroke" data-item-index="none" data-renderer-id="0" transform="translate(87, 18)"><g id="tx_start_1lqigs51fni41t-fill" stroke="none" fill="#484848"><g><text style="font: 20px Roboto, sans-serif; white-space: pre;"><tspan x="12" y="34" dominant-baseline="ideographic">Start</tspan></text></g></g></g><g id="g-root-stac_qs5col1fnp53i-fill" data-item-order="0" data-item-id="stac_qs5col1fnp53i" data-item-class="Icon Stroke" data-item-index="none" data-renderer-id="0" transform="translate(33, 262)"></g><g id="g-root-tx_declarea_1qa2wl11fnp4at-fill" data-item-order="0" data-item-id="tx_declarea_1qa2wl11fnp4at" data-item-class="Label Stroke" data-item-index="none" data-renderer-id="0" transform="translate(69, 253)"><g id="tx_declarea_1qa2wl11fnp4at-fill" stroke="none" fill="#17b0e3"><g><text style="font: 20px Roboto, sans-serif; white-space: pre;"><tspan x="12" y="34" dominant-baseline="ideographic">Declare </tspan><tspan x="12" y="58" dominant-baseline="ideographic">Array</tspan></text></g></g></g><g id="g-root-writ_1448fat1fn9ngg-fill" data-item-order="0" data-item-id="writ_1448fat1fn9ngg" data-item-class="Icon Stroke" data-item-index="none" data-renderer-id="0" transform="translate(15, 381)"></g><g id="g-root-tx_inputter_1luvyph1fn9o93-fill" data-item-order="0" data-item-id="tx_inputter_1luvyph1fn9o93" data-item-class="Label Stroke" data-item-index="none" data-renderer-id="0" transform="translate(51, 384)"><g id="tx_inputter_1luvyph1fn9o93-fill" stroke="none" fill="#17b0e3"><g><text style="font: 20px Roboto, sans-serif; white-space: pre;"><tspan x="12" y="34" dominant-baseline="ideographic">Input Terms</tspan></text></g></g></g><g id="g-root-pict_241o51fni39n-fill" data-item-order="0" data-item-id="pict_241o51fni39n" data-item-class="Icon Stroke" data-item-index="none" data-renderer-id="0" transform="translate(21, 610)"></g><g id="g-root-hole_v47x4l1fni41u-fill" data-item-order="0" data-item-id="hole_v47x4l1fni41u" data-item-class="Icon Stroke" data-item-index="none" data-renderer-id="0" transform="translate(51, 15)"></g><g id="g-root-1_1hefzhx1fndwcs-fill" data-item-order="0" data-item-id="1_1hefzhx1fndwcs" data-item-class="Icon Stroke" data-item-index="none" data-renderer-id="0" transform="translate(21, 491)"></g><g id="g-root-tx_sortterm_v63iph1fndxc3-fill" data-item-order="0" data-item-id="tx_sortterm_v63iph1fndxc3" data-item-class="Label Stroke" data-item-index="none" data-renderer-id="0" transform="translate(57, 494)"><g id="tx_sortterm_v63iph1fndxc3-fill" stroke="none" fill="#17b0e3"><g><text style="font: 20px Roboto, sans-serif; white-space: pre;"><tspan x="12" y="34" dominant-baseline="ideographic">Sort Terms</tspan></text></g></g></g><g id="g-root-tx_definest_141qfsl1fnfabm-fill" data-item-order="0" data-item-id="tx_definest_141qfsl1fnfabm" data-item-class="Label Stroke" data-item-index="none" data-renderer-id="0" transform="translate(63, 125)"><g id="tx_definest_141qfsl1fnfabm-fill" stroke="none" fill="#17b0e3"><g><text style="font: 20px Roboto, sans-serif; white-space: pre;"><tspan x="12" y="34" dominant-baseline="ideographic">Define </tspan><tspan x="12" y="58" dominant-baseline="ideographic">Structure</tspan></text></g></g></g><g id="g-root-cu_1qckw391fni41s-fill" data-item-order="2" data-item-id="cu_1qckw391fni41s" data-item-class="Curve Stroke" data-item-index="none" data-renderer-id="0" transform="translate(93, 185)"></g><g id="g-root-cu_1hgxvud1fni4uj-fill" data-item-order="2" data-item-id="cu_1hgxvud1fni4uj" data-item-class="Curve Stroke" data-item-index="none" data-renderer-id="0" transform="translate(93, 313)"></g><g id="g-root-cu_1463uk51fni39q-fill" data-item-order="2" data-item-id="cu_1463uk51fni39q" data-item-class="Curve Stroke" data-item-index="none" data-renderer-id="0" transform="translate(93, 423)"></g><g id="g-root-cu_924dit1fni51h-fill" data-item-order="2" data-item-id="cu_924dit1fni51h" data-item-class="Curve Stroke" data-item-index="none" data-renderer-id="0" transform="translate(93, 57)"></g><g id="g-root-cu_mfgb5h1fni2h5-fill" data-item-order="2" data-item-id="cu_mfgb5h1fni2h5" data-item-class="Curve Stroke" data-item-index="none" data-renderer-id="0" transform="translate(93, 533)"></g><g id="g-root-ro_hun0c51fni32k-stroke" data-item-order="-12096" data-item-id="ro_hun0c51fni32k" data-item-class="Shape Stroke Fill" data-item-index="none" data-renderer-id="0" transform="translate(9, 589)"><g id="ro_hun0c51fni32k-stroke" fill="none" stroke-linecap="round" stroke-linejoin="round" stroke-miterlimit="4" stroke="#17b0e3" stroke-width="2"><g><path d="M 22 10L 166 10C 166 10 178 10 178 22L 178 70C 178 70 178 82 166 82L 22 82C 22 82 10 82 10 70L 10 22C 10 22 10 10 22 10"></path></g></g></g><g id="g-root-ro_1lu9egl1fnfa4k-stroke" data-item-order="-11232" data-item-id="ro_1lu9egl1fnfa4k" data-item-class="Shape Stroke Fill" data-item-index="none" data-renderer-id="0" transform="translate(15, 113)"><g id="ro_1lu9egl1fnfa4k-stroke" fill="none" stroke-linecap="round" stroke-linejoin="round" stroke-miterlimit="4" stroke="#17b0e3" stroke-width="2"><g><path d="M 22 10L 154 10C 154 10 166 10 166 22L 166 70C 166 70 166 82 154 82L 22 82C 22 82 10 82 10 70L 10 22C 10 22 10 10 22 10"></path></g></g></g><g id="g-root-ro_91ht9x1fnp4av-stroke" data-item-order="-10368" data-item-id="ro_91ht9x1fnp4av" data-item-class="Shape Stroke Fill" data-item-index="none" data-renderer-id="0" transform="translate(21, 241)"><g id="ro_91ht9x1fnp4av-stroke" fill="none" stroke-linecap="round" stroke-linejoin="round" stroke-miterlimit="4" stroke="#17b0e3" stroke-width="2"><g><path d="M 22 10L 142 10C 142 10 154 10 154 22L 154 70C 154 70 154 82 142 82L 22 82C 22 82 10 82 10 70L 10 22C 10 22 10 10 22 10"></path></g></g></g><g id="g-root-ro_hx4wol1fn9pu1-stroke" data-item-order="-9720" data-item-id="ro_hx4wol1fn9pu1" data-item-class="Shape Stroke Fill" data-item-index="none" data-renderer-id="0" transform="translate(3, 369)"><g id="ro_hx4wol1fn9pu1-stroke" fill="none" stroke-linecap="round" stroke-linejoin="round" stroke-miterlimit="4" stroke="#17b0e3" stroke-width="2"><g><path d="M 22 10L 178 10C 178 10 190 10 190 22L 190 52C 190 52 190 64 178 64L 22 64C 22 64 10 64 10 52L 10 22C 10 22 10 10 22 10"></path></g></g></g><g id="g-root-ro_znsg391fndvk5-stroke" data-item-order="-9072" data-item-id="ro_znsg391fndvk5" data-item-class="Shape Stroke Fill" data-item-index="none" data-renderer-id="0" transform="translate(9, 479)"><g id="ro_znsg391fndvk5-stroke" fill="none" stroke-linecap="round" stroke-linejoin="round" stroke-miterlimit="4" stroke="#17b0e3" stroke-width="2"><g><path d="M 22 10L 166 10C 166 10 178 10 178 22L 178 52C 178 52 178 64 166 64L 22 64C 22 64 10 64 10 52L 10 22C 10 22 10 10 22 10"></path></g></g></g><g id="g-root-ro_8xqvlh1fni39n-stroke" data-item-order="-5832" data-item-id="ro_8xqvlh1fni39n" data-item-class="Shape Stroke Fill" data-item-index="none" data-renderer-id="0" transform="translate(39, 3)"><g id="ro_8xqvlh1fni39n-stroke" fill="none" stroke-linecap="round" stroke-linejoin="round" stroke-miterlimit="4" stroke="#484848" stroke-width="2"><g><path d="M 22 10L 106 10C 106 10 118 10 118 22L 118 52C 118 52 118 64 106 64L 22 64C 22 64 10 64 10 52L 10 22C 10 22 10 10 22 10"></path></g></g></g><g id="g-root-1_4jsvw51fnfb4b-stroke" data-item-order="0" data-item-id="1_4jsvw51fnfb4b" data-item-class="Icon Stroke" data-item-index="none" data-renderer-id="0" transform="translate(27, 134)"><g id="1_4jsvw51fnfb4b-stroke" fill="none" stroke-linecap="round" stroke-linejoin="round" stroke-miterlimit="4" stroke="#17b0e3" stroke-width="2"><g><path d="M 15.625 10.62625L 34.375 10.62625C 34.375 10.62625 39.375 10.62625 39.375 15.62625L 39.375 34.376251C 39.375 34.376251 39.375 39.376251 34.375 39.376251L 15.625 39.376251C 15.625 39.376251 10.625 39.376251 10.625 34.376251L 10.625 15.62625C 10.625 15.62625 10.625 10.62625 15.625 10.62625M 21.87125 25.001251C 21.87125 26.72714 23.270361 28.126251 24.99625 28.126251C 26.722141 28.126251 28.12125 26.72714 28.12125 25.001251C 28.12125 23.27536 26.722141 21.876251 24.99625 21.876251C 23.270361 21.876251 21.87125 23.27536 21.87125 25.001251M 23.875 17.563749C 24.164125 17.883566 24.575115 18.066059 25.00625 18.066059C 25.437386 18.066059 25.848373 17.883566 26.137501 17.563749L 26.862499 16.75C 27.294571 16.271698 27.980858 16.116997 28.576349 16.363668C 29.171843 16.61034 29.547712 17.205019 29.515001 17.848751L 29.45875 18.938749C 29.437391 19.369289 29.599091 19.788784 29.903904 20.093596C 30.208717 20.398409 30.628208 20.56011 31.05875 20.53875L 32.14875 20.4825C 32.79248 20.449789 33.387161 20.825657 33.633831 21.42115C 33.880505 22.016644 33.725803 22.702929 33.247498 23.135L 32.4375 23.866251C 32.116966 24.154966 31.93396 24.566109 31.93396 24.997499C 31.93396 25.428892 32.116966 25.840033 32.4375 26.12875L 33.247498 26.860001C 33.725803 27.292072 33.880505 27.978355 33.633831 28.573849C 33.387161 29.169342 32.79248 29.54521 32.14875 29.512501L 31.05875 29.456249C 30.628208 29.434891 30.208717 29.596592 29.903904 29.901403C 29.599091 30.206215 29.437391 30.62571 29.45875 31.05625L 29.515001 32.146248C 29.547712 32.789982 29.171843 33.384659 28.576349 33.631332C 27.980858 33.878006 27.294571 33.723305 26.862499 33.245003L 26.13125 32.435001C 25.842123 32.115181 25.431135 31.932693 25 31.932693C 24.568865 31.932693 24.157875 32.115181 23.86875 32.435001L 23.137501 33.245003C 22.705429 33.723305 22.019144 33.878006 21.423651 33.631332C 20.828157 33.384659 20.45229 32.789982 20.485001 32.146252L 20.540001 31.05625C 20.562122 30.625723 20.400845 30.205971 20.096132 29.90102C 19.791422 29.596069 19.371796 29.434464 18.94125 29.456251L 17.85125 29.512499C 17.208847 29.544411 16.615587 29.16951 16.368662 28.5756C 16.121738 27.981689 16.27433 27.296692 16.75 26.86375L 17.559999 26.1325C 17.879816 25.843374 18.062309 25.432384 18.062309 25.001251C 18.062309 24.570116 17.879816 24.159126 17.559999 23.869999L 16.75 23.13875C 16.271698 22.706678 16.116997 22.020393 16.363668 21.4249C 16.61034 20.829409 17.205019 20.453539 17.848751 20.48625L 18.938749 20.5425C 19.369295 20.564287 19.788921 20.402681 20.093634 20.097731C 20.398346 19.79278 20.559624 19.373028 20.5375 18.942501L 20.4825 17.852501C 20.446741 17.206867 20.822374 16.608976 21.419556 16.360994C 22.016735 16.113012 22.705399 16.268951 23.137501 16.75Z"></path></g></g></g><g id="g-root-tx_printpol_m8l3791fni41u-stroke" data-item-order="0" data-item-id="tx_printpol_m8l3791fni41u" data-item-class="Label Stroke" data-item-index="none" data-renderer-id="0" transform="translate(57, 601)"></g><g id="g-root-tx_start_1lqigs51fni41t-stroke" data-item-order="0" data-item-id="tx_start_1lqigs51fni41t" data-item-class="Label Stroke" data-item-index="none" data-renderer-id="0" transform="translate(87, 18)"></g><g id="g-root-stac_qs5col1fnp53i-stroke" data-item-order="0" data-item-id="stac_qs5col1fnp53i" data-item-class="Icon Stroke" data-item-index="none" data-renderer-id="0" transform="translate(33, 262)"><g id="stac_qs5col1fnp53i-stroke" fill="none" stroke-linecap="round" stroke-linejoin="round" stroke-miterlimit="4" stroke="#17b0e3" stroke-width="2"><g><path d="M 25.25 24.266251C 25.090593 24.335821 24.909407 24.335821 24.75 24.266251L 11.94375 18.6975C 11.715611 18.598261 11.568054 18.373165 11.568054 18.124374C 11.568054 17.875586 11.715611 17.650488 11.94375 17.55125L 24.75 11.9825C 24.909407 11.91293 25.090593 11.91293 25.25 11.9825L 38.056252 17.55125C 38.284389 17.650488 38.431946 17.875586 38.431946 18.124374C 38.431946 18.373165 38.284389 18.598261 38.056252 18.6975ZM 31.46875 21.5625L 38.056252 24.4275C 38.284389 24.526739 38.431946 24.751837 38.431946 25.000626C 38.431946 25.249414 38.284389 25.474512 38.056252 25.57375L 25.25 31.1425C 25.090593 31.21207 24.909407 31.21207 24.75 31.1425L 11.94375 25.57375C 11.715611 25.474512 11.568054 25.249414 11.568054 25.000626C 11.568054 24.751837 11.715611 24.526739 11.94375 24.4275L 18.53125 21.5625M 31.46875 28.4375L 38.056252 31.3025C 38.284389 31.401739 38.431946 31.626835 38.431946 31.875626C 38.431946 32.124413 38.284389 32.34951 38.056252 32.44875L 25.25 38.017498C 25.090593 38.08707 24.909407 38.08707 24.75 38.017498L 11.94375 32.44875C 11.715611 32.34951 11.568054 32.124413 11.568054 31.875626C 11.568054 31.626835 11.715611 31.401739 11.94375 31.3025L 18.53125 28.4375"></path></g></g></g><g id="g-root-tx_declarea_1qa2wl11fnp4at-stroke" data-item-order="0" data-item-id="tx_declarea_1qa2wl11fnp4at" data-item-class="Label Stroke" data-item-index="none" data-renderer-id="0" transform="translate(69, 253)"></g><g id="g-root-writ_1448fat1fn9ngg-stroke" data-item-order="0" data-item-id="writ_1448fat1fn9ngg" data-item-class="Icon Stroke" data-item-index="none" data-renderer-id="0" transform="translate(15, 381)"><g id="writ_1448fat1fn9ngg-stroke" fill="none" stroke-linecap="round" stroke-linejoin="round" stroke-miterlimit="4" stroke="#17b0e3" stroke-width="2"><g><path d="M 33.125 33.75L 33.125 38.125C 33.125 38.815353 32.565353 39.375 31.875 39.375L 11.875 39.375C 11.184644 39.375 10.625 38.815353 10.625 38.125L 10.625 15.625C 10.625 14.934644 11.184644 14.375 11.875 14.375L 15.625 14.375M 28.125 14.375L 31.875 14.375C 32.565353 14.375 33.125 14.934644 33.125 15.625L 33.125 20M 20 12.49875C 20 13.534284 20.839466 14.37375 21.875 14.37375C 22.910534 14.37375 23.75 13.534284 23.75 12.49875C 23.75 11.463216 22.910534 10.62375 21.875 10.62375C 20.839466 10.62375 20 11.463216 20 12.49875ZM 23.643749 13.125L 26.875 13.125C 27.565357 13.125 28.125 13.684644 28.125 14.375L 28.125 15.625C 28.125 16.315355 27.565357 16.875 26.875 16.875L 16.875 16.875C 16.184645 16.875 15.625 16.315355 15.625 15.625L 15.625 14.375C 15.625 13.684644 16.184645 13.125 16.875 13.125L 20.106251 13.125M 14.375 21.873749L 29.375 21.873749M 14.375 26.873749L 26.2075 26.873749M 14.375 31.873751L 24.35375 31.873751M 31.25 31.875L 26.875 33.125L 28.125 28.75L 35.602501 21.272499C 36.469406 20.433294 37.849171 20.444494 38.702339 21.297663C 39.555508 22.150829 39.566708 23.530596 38.727501 24.397501Z"></path></g></g></g><g id="g-root-tx_inputter_1luvyph1fn9o93-stroke" data-item-order="0" data-item-id="tx_inputter_1luvyph1fn9o93" data-item-class="Label Stroke" data-item-index="none" data-renderer-id="0" transform="translate(51, 384)"></g><g id="g-root-pict_241o51fni39n-stroke" data-item-order="0" data-item-id="pict_241o51fni39n" data-item-class="Icon Stroke" data-item-index="none" data-renderer-id="0" transform="translate(21, 610)"><g id="pict_241o51fni39n-stroke" fill="none" stroke-linecap="round" stroke-linejoin="round" stroke-miterlimit="4" stroke="#17b0e3" stroke-width="2"><g><path d="M 16.875 30.625L 13.125 30.625C 11.745997 30.620882 10.629119 29.504002 10.625 28.125L 10.625 20.625C 10.629119 19.245998 11.745997 18.129118 13.125 18.125L 36.875 18.125C 38.254005 18.129118 39.370884 19.245998 39.375 20.625L 39.375 28.125C 39.370884 29.504002 38.254005 30.620882 36.875 30.625L 33.125 30.625M 16.875 15.625L 16.875 10.625L 28.8575 10.625C 29.188993 10.625071 29.506884 10.756813 29.741251 10.99125L 32.758751 14.00875C 32.993187 14.243115 33.124928 14.561007 33.125 14.8925L 33.125 15.625M 33.125 38.125C 33.125 38.815353 32.565353 39.375 31.875 39.375L 18.125 39.375C 17.434645 39.375 16.875 38.815353 16.875 38.125L 16.875 26.875L 33.125 26.875ZM 13.125 21.873749C 13.125 22.564106 13.684644 23.123749 14.375 23.123749C 15.065356 23.123749 15.625 22.564106 15.625 21.873749C 15.625 21.183393 15.065356 20.623749 14.375 20.623749C 13.684644 20.623749 13.125 21.183393 13.125 21.873749M 28.125 10.62375L 28.125 15.62375L 33.125 15.62375M 30.5725 36.873749L 27.895 30.375L 25 34.696251L 21.952499 32.192501L 19.53125 36.873749L 30.5725 36.873749ZM 20.3125 29.375C 20.485088 29.375 20.625 29.514912 20.625 29.6875C 20.625 29.860088 20.485088 30 20.3125 30C 20.139912 30 20 29.860088 20 29.6875C 19.999666 29.604517 20.032482 29.524837 20.09116 29.46616C 20.149837 29.407482 20.229517 29.374664 20.3125 29.375"></path></g></g></g><g id="g-root-hole_v47x4l1fni41u-stroke" data-item-order="0" data-item-id="hole_v47x4l1fni41u" data-item-class="Icon Stroke" data-item-index="none" data-renderer-id="0" transform="translate(51, 15)"><g id="hole_v47x4l1fni41u-stroke" fill="none" stroke-linecap="round" stroke-linejoin="round" stroke-miterlimit="4" stroke="#484848" stroke-width="2"><g><path d="M 22.5 10.625L 22.5 35.625M 13.75 36.25C 13.750001 37.975891 17.667509 39.375 22.5 39.375C 27.332493 39.375 31.25 37.975891 31.25 36.25C 31.25 34.524109 27.332493 33.125 22.5 33.125C 17.667509 33.125 13.750001 34.524109 13.750001 36.25ZM 22.5 11.875L 35.625 11.875C 35.878136 11.874547 36.106548 12.026829 36.20348 12.260671C 36.300415 12.494514 36.246723 12.763732 36.067501 12.9425L 32.1325 16.875L 36.06625 20.807499C 36.245312 20.986107 36.29908 21.255022 36.202469 21.48875C 36.105858 21.722479 35.877911 21.874947 35.625 21.875L 22.5 21.875"></path></g></g></g><g id="g-root-1_1hefzhx1fndwcs-stroke" data-item-order="0" data-item-id="1_1hefzhx1fndwcs" data-item-class="Icon Stroke" data-item-index="none" data-renderer-id="0" transform="translate(21, 491)"><g id="1_1hefzhx1fndwcs-stroke" fill="none" stroke-linecap="round" stroke-linejoin="round" stroke-miterlimit="4" stroke="#17b0e3" stroke-width="2"><g><path d="M 10 10M 32.5 26.875L 35.625 23.75L 38.75 26.875M 35.625 23.75L 35.625 38.75M 32.993752 12.09125C 32.993752 11.95125 32.993752 11.67125 32.853752 11.53C 32.713749 11.39 32.57375 11.25 32.2925 11.25L 11.95125 11.25C 11.81125 11.25 11.53 11.39 11.39 11.53C 11.25 11.67125 11.25 11.8125 11.25 12.0925C 11.53 17 15.1775 21.068748 19.9475 22.05125L 19.9475 31.59C 19.9475 31.87125 20.0875 32.151253 20.36875 32.291252C 20.64875 32.432499 20.93 32.432499 21.210001 32.151253L 24.15625 29.766251C 24.296249 29.626251 24.4375 29.48625 24.4375 29.205L 24.4375 22.0525C 29.06625 20.93 32.712502 17.002501 32.993752 12.09125Z"></path></g></g></g><g id="g-root-tx_sortterm_v63iph1fndxc3-stroke" data-item-order="0" data-item-id="tx_sortterm_v63iph1fndxc3" data-item-class="Label Stroke" data-item-index="none" data-renderer-id="0" transform="translate(57, 494)"></g><g id="g-root-tx_definest_141qfsl1fnfabm-stroke" data-item-order="0" data-item-id="tx_definest_141qfsl1fnfabm" data-item-class="Label Stroke" data-item-index="none" data-renderer-id="0" transform="translate(63, 125)"></g><g id="g-root-cu_1qckw391fni41s-stroke" data-item-order="2" data-item-id="cu_1qckw391fni41s" data-item-class="Curve Stroke" data-item-index="none" data-renderer-id="0" transform="translate(93, 185)"><g id="cu_1qckw391fni41s-stroke" fill="none" stroke-linecap="round" stroke-linejoin="round" stroke-miterlimit="4" stroke="#484848" stroke-width="2"><g><path d="M 10 10L 10 38L 10 64"></path><path d="M 3.5 58L 10 64.5L 16.5 58" stroke-dasharray="none"></path></g></g></g><g id="g-root-cu_1hgxvud1fni4uj-stroke" data-item-order="2" data-item-id="cu_1hgxvud1fni4uj" data-item-class="Curve Stroke" data-item-index="none" data-renderer-id="0" transform="translate(93, 313)"><g id="cu_1hgxvud1fni4uj-stroke" fill="none" stroke-linecap="round" stroke-linejoin="round" stroke-miterlimit="4" stroke="#484848" stroke-width="2"><g><path d="M 10 10L 10 38L 10 64"></path><path d="M 3.5 58L 10 64.5L 16.5 58" stroke-dasharray="none"></path></g></g></g><g id="g-root-cu_1463uk51fni39q-stroke" data-item-order="2" data-item-id="cu_1463uk51fni39q" data-item-class="Curve Stroke" data-item-index="none" data-renderer-id="0" transform="translate(93, 423)"><g id="cu_1463uk51fni39q-stroke" fill="none" stroke-linecap="round" stroke-linejoin="round" stroke-miterlimit="4" stroke="#484848" stroke-width="2"><g><path d="M 10 10L 10 38L 10 64"></path><path d="M 3.5 58L 10 64.5L 16.5 58" stroke-dasharray="none"></path></g></g></g><g id="g-root-cu_924dit1fni51h-stroke" data-item-order="2" data-item-id="cu_924dit1fni51h" data-item-class="Curve Stroke" data-item-index="none" data-renderer-id="0" transform="translate(93, 57)"><g id="cu_924dit1fni51h-stroke" fill="none" stroke-linecap="round" stroke-linejoin="round" stroke-miterlimit="4" stroke="#484848" stroke-width="2"><g><path d="M 10 10L 10 38L 10 64"></path><path d="M 3.5 58L 10 64.5L 16.5 58" stroke-dasharray="none"></path></g></g></g><g id="g-root-cu_mfgb5h1fni2h5-stroke" data-item-order="2" data-item-id="cu_mfgb5h1fni2h5" data-item-class="Curve Stroke" data-item-index="none" data-renderer-id="0" transform="translate(93, 533)"><g id="cu_mfgb5h1fni2h5-stroke" fill="none" stroke-linecap="round" stroke-linejoin="round" stroke-miterlimit="4" stroke="#484848" stroke-width="2"><g><path d="M 10 10L 10 38L 10 64"></path><path d="M 3.5 58L 10 64.5L 16.5 58" stroke-dasharray="none"></path></g></g></g></g></g></svg>