<?xml version="1.0" encoding="utf-8" standalone="yes"?>
<!DOCTYPE svg PUBLIC "-//W3C//DTD SVG 1.1//EN" "http://www.w3.org/Graphics/SVG/1.1/DTD/svg11.dtd">
<svg width="1008" height="228" viewBox="0 0 1008 228" style="fill:none;stroke:none;fill-rule:evenodd;clip-rule:evenodd;stroke-linecap:round;stroke-linejoin:round;stroke-miterlimit:1.5;" version="1.1" xmlns="http://www.w3.org/2000/svg" xmlns:xlink="http://www.w3.org/1999/xlink"><style id="fontImports">@import url("https://fonts.googleapis.com/css2?family=Roboto:wght@400;700&amp;display=block");</style><g id="items" style="isolation: isolate"><g id="blend" style="mix-blend-mode:multiply"><g id="g-root-2.cu_sy_18egg3b1cvulft-fill" data-item-order="-20156" data-item-id="2.cu_sy_18egg3b1cvulft" data-item-class="ScenePart Part Indexed Fill Stroke" data-item-index="2" data-renderer-id="0" transform="translate(546, 80)"><g id="2.cu_sy_18egg3b1cvulft-fill" stroke="none" fill="#cef3ff"><g><path d="M 83 70C 87.95 70 92.518 68.402 96.194 65.706C 97.782 66.533 99.586 67 101.5 67C 107.851 67 113 61.851 113 55.5C 113 52.514 111.862 49.794 109.996 47.75C 112.435 45.827 114 42.846 114 39.5C 114 37.08 113.181 34.852 111.806 33.076C 111.934 32.237 112 31.376 112 30.5C 112 21.387 104.837 14 96 14C 95.01 14 94.04 14.093 93.099 14.27C 90.011 11.613 85.95 10 81.5 10C 76.933 10 72.774 11.7 69.658 14.483C 68.661 14.169 67.6 14 66.5 14C 60.701 14 56 18.701 56 24.5C 56 27.072 56.925 29.428 58.46 31.254C 56.915 33.417 56 36.098 56 39C 56 41.302 56.575 43.464 57.584 45.339C 55.359 47.746 54 50.964 54 54.5C 54 61.956 60.044 68 67.5 68C 69.122 68 70.677 67.714 72.118 67.19C 75.327 68.978 79.041 70 83 70ZM 28 40C 28 44.418278 31.581722 48 36 48C 40.418278 48 44 44.418278 44 40C 44 35.581722 40.418278 32 36 32C 31.581722 32 28 35.581722 28 40M 18 40C 18 42.209137 16.209167 44 14 44C 11.790863 44 10 42.209137 10 40C 10 37.790863 11.790863 36 14 36C 16.209167 36 18 37.790863 18 40"></path></g></g></g><g id="g-root-1.cu_sy_1lza2rb1cvt8g8-fill" data-item-order="-20154" data-item-id="1.cu_sy_1lza2rb1cvt8g8" data-item-class="ScenePart Part Indexed Indexed_1 Fill Stroke" data-item-index="1" data-renderer-id="0" transform="translate(314, 80)"><g id="1.cu_sy_1lza2rb1cvt8g8-fill" stroke="none" fill="#d8ceff"><g><path d="M 20.598 19C 20.565 19 20.533 19 20.5 19C 14.701 19 10 23.701 10 29.5C 10 32.574 11.321 35.339 13.426 37.259C 13.147 38.459 13 39.712 13 41C 13 41.745 13.049 42.478 13.145 43.196C 11.788 45.301 11 47.809 11 50.5C 11 57.956 17.044 64 24.5 64C 24.847 64 25.19 63.987 25.53 63.961C 29.172 67.682 34.308 70 40 70C 45.641 70 50.737 67.723 54.373 64.059C 55.621 64.662 57.021 65 58.5 65C 63.747 65 68 60.747 68 55.5C 68 52.628 66.726 50.055 64.712 48.313C 67.948 45.469 70 41.232 70 36.5C 70 32.425 68.478 28.717 65.99 25.95C 65.996 25.801 66 25.651 66 25.5C 66 20.253 61.747 16 56.5 16C 55.92 16 55.353 16.052 54.802 16.151C 50.681 12.338 45.12 10 39 10C 31.475 10 24.794 13.535 20.598 19ZM 80 40C 80 44.418278 83.581722 48 88 48C 92.418278 48 96 44.418278 96 40C 96 35.581722 92.418278 32 88 32C 83.581722 32 80 35.581722 80 40M 114 40C 114 42.209137 112.209137 44 110 44C 107.790863 44 106 42.209137 106 40C 106 37.790863 107.790863 36 110 36C 112.209137 36 114 37.790863 114 40"></path></g></g></g><g id="g-root-tx_howtorep_qqxa471cvul1q-fill" data-item-order="0" data-item-id="tx_howtorep_qqxa471cvul1q" data-item-class="Label Stroke SceneTarget SceneTitle Title" data-item-index="none" data-renderer-id="0" transform="translate(314, 2)"><g id="tx_howtorep_qqxa471cvul1q-fill" stroke="none" fill="#1AC6FF"><g><text style="font: bold 20px Roboto, sans-serif; white-space: pre;"><tspan x="15.81" y="33.47" dominant-baseline="ideographic">How to represent a sparse matrix in </tspan><tspan x="148.61" y="57.47" dominant-baseline="ideographic">code?</tspan></text></g></g></g><g id="g-root-face_1urssqf1cvhyj2-fill" data-item-order="0" data-item-id="face_1urssqf1cvhyj2" data-item-class="Icon Stroke SceneTarget ColorStrokeBlack" data-item-index="0" data-renderer-id="0" transform="translate(446, 74)"></g><g id="g-root-tx_usedense_1hd7trr1cvul1p-fill" data-item-order="0" data-item-id="tx_usedense_1hd7trr1cvul1p" data-item-class="Label Stroke SceneTarget Indexed Indexed_1" data-item-index="1" data-renderer-id="0" transform="translate(2, 98)"><g id="tx_usedense_1hd7trr1cvul1p-fill" stroke="none" fill="#886AFF"><g><text style="font: bold 20px Roboto, sans-serif; white-space: pre;"><tspan x="15.4" y="33.47" dominant-baseline="ideographic">Use dense matrix representation</tspan></text></g></g></g><g id="g-root-netw_1upxdh31cvkr2e-fill" data-item-order="0" data-item-id="netw_1upxdh31cvkr2e" data-item-class="Icon Stroke SceneTarget Indexed Indexed_1 InsideFill" data-item-index="1" data-renderer-id="0" transform="translate(326, 92)"></g><g id="g-root-onli_1hd7wxj1cvkqh9-fill" data-item-order="0" data-item-id="onli_1hd7wxj1cvkqh9" data-item-class="Icon Stroke SceneTarget Indexed InsideFill" data-item-index="2" data-renderer-id="0" transform="translate(602, 92)"></g><g id="g-root-tx_useeffec_1lr5wmv1cvum0z-fill" data-item-order="0" data-item-id="tx_useeffec_1lr5wmv1cvum0z" data-item-class="Label Stroke SceneTarget Indexed" data-item-index="2" data-renderer-id="0" transform="translate(662, 98)"><g id="tx_useeffec_1lr5wmv1cvum0z-fill" stroke="none" fill="#1AC6FF"><g><text style="font: bold 20px Roboto, sans-serif; white-space: pre;"><tspan x="12" y="33.47" dominant-baseline="ideographic">Use effective matrix representation</tspan></text></g></g></g><g id="g-root-tx_ineffici_m98cqf1cvumto-fill" data-item-order="0" data-item-id="tx_ineffici_m98cqf1cvumto" data-item-class="Label Stroke SceneTarget Indexed Indexed_1" data-item-index="1" data-renderer-id="0" transform="translate(50, 134)"><g id="tx_ineffici_m98cqf1cvumto-fill" stroke="none" fill="#886AFF"><g><text style="font: 20px Roboto, sans-serif; white-space: pre;"><tspan x="77.25" y="33.47" dominant-baseline="ideographic">Inefficient for sparse </tspan><tspan x="49.62" y="57.47" dominant-baseline="ideographic">matrices, as it stores all </tspan><tspan x="19.72" y="81.47" dominant-baseline="ideographic">elements (including zeros).</tspan></text></g></g></g><g id="g-root-tx_efficien_v2zxpz1cvun0q-fill" data-item-order="0" data-item-id="tx_efficien_v2zxpz1cvun0q" data-item-class="Label Stroke SceneTarget Indexed" data-item-index="2" data-renderer-id="0" transform="translate(662, 134)"><g id="tx_efficien_v2zxpz1cvun0q-fill" stroke="none" fill="#1AC6FF"><g><text style="font: 20px Roboto, sans-serif; white-space: pre;"><tspan x="12" y="33.47" dominant-baseline="ideographic">Efficient for sparse matrices, </tspan><tspan x="12" y="57.47" dominant-baseline="ideographic">as it only stores non-zero </tspan><tspan x="12" y="81.47" dominant-baseline="ideographic">elements and their indices.</tspan></text></g></g></g><g id="g-root-2.cu_sy_18egg3b1cvulft-stroke" data-item-order="-20156" data-item-id="2.cu_sy_18egg3b1cvulft" data-item-class="ScenePart Part Indexed Fill Stroke" data-item-index="2" data-renderer-id="0" transform="translate(546, 80)"><g id="2.cu_sy_18egg3b1cvulft-stroke" fill="none" stroke-linecap="round" stroke-linejoin="round" stroke-miterlimit="4" stroke="#17b0e3" stroke-width="2"><g><path d="M 83 70C 87.95 70 92.518 68.402 96.194 65.706C 97.782 66.533 99.586 67 101.5 67C 107.851 67 113 61.851 113 55.5C 113 52.514 111.862 49.794 109.996 47.75C 112.435 45.827 114 42.846 114 39.5C 114 37.08 113.181 34.852 111.806 33.076C 111.934 32.237 112 31.376 112 30.5C 112 21.387 104.837 14 96 14C 95.01 14 94.04 14.093 93.099 14.27C 90.011 11.613 85.95 10 81.5 10C 76.933 10 72.774 11.7 69.658 14.483C 68.661 14.169 67.6 14 66.5 14C 60.701 14 56 18.701 56 24.5C 56 27.072 56.925 29.428 58.46 31.254C 56.915 33.417 56 36.098 56 39C 56 41.302 56.575 43.464 57.584 45.339C 55.359 47.746 54 50.964 54 54.5C 54 61.956 60.044 68 67.5 68C 69.122 68 70.677 67.714 72.118 67.19C 75.327 68.978 79.041 70 83 70ZM 28 40C 28 44.418278 31.581722 48 36 48C 40.418278 48 44 44.418278 44 40C 44 35.581722 40.418278 32 36 32C 31.581722 32 28 35.581722 28 40M 18 40C 18 42.209137 16.209167 44 14 44C 11.790863 44 10 42.209137 10 40C 10 37.790863 11.790863 36 14 36C 16.209167 36 18 37.790863 18 40"></path></g></g></g><g id="g-root-1.cu_sy_1lza2rb1cvt8g8-stroke" data-item-order="-20154" data-item-id="1.cu_sy_1lza2rb1cvt8g8" data-item-class="ScenePart Part Indexed Indexed_1 Fill Stroke" data-item-index="1" data-renderer-id="0" transform="translate(314, 80)"><g id="1.cu_sy_1lza2rb1cvt8g8-stroke" fill="none" stroke-linecap="round" stroke-linejoin="round" stroke-miterlimit="4" stroke="#795ee3" stroke-width="2"><g><path d="M 20.598 19C 20.565 19 20.533 19 20.5 19C 14.701 19 10 23.701 10 29.5C 10 32.574 11.321 35.339 13.426 37.259C 13.147 38.459 13 39.712 13 41C 13 41.745 13.049 42.478 13.145 43.196C 11.788 45.301 11 47.809 11 50.5C 11 57.956 17.044 64 24.5 64C 24.847 64 25.19 63.987 25.53 63.961C 29.172 67.682 34.308 70 40 70C 45.641 70 50.737 67.723 54.373 64.059C 55.621 64.662 57.021 65 58.5 65C 63.747 65 68 60.747 68 55.5C 68 52.628 66.726 50.055 64.712 48.313C 67.948 45.469 70 41.232 70 36.5C 70 32.425 68.478 28.717 65.99 25.95C 65.996 25.801 66 25.651 66 25.5C 66 20.253 61.747 16 56.5 16C 55.92 16 55.353 16.052 54.802 16.151C 50.681 12.338 45.12 10 39 10C 31.475 10 24.794 13.535 20.598 19ZM 80 40C 80 44.418278 83.581722 48 88 48C 92.418278 48 96 44.418278 96 40C 96 35.581722 92.418278 32 88 32C 83.581722 32 80 35.581722 80 40M 114 40C 114 42.209137 112.209137 44 110 44C 107.790863 44 106 42.209137 106 40C 106 37.790863 107.790863 36 110 36C 112.209137 36 114 37.790863 114 40"></path></g></g></g><g id="g-root-tx_howtorep_qqxa471cvul1q-stroke" data-item-order="0" data-item-id="tx_howtorep_qqxa471cvul1q" data-item-class="Label Stroke SceneTarget SceneTitle Title" data-item-index="none" data-renderer-id="0" transform="translate(314, 2)"></g><g id="g-root-face_1urssqf1cvhyj2-stroke" data-item-order="0" data-item-id="face_1urssqf1cvhyj2" data-item-class="Icon Stroke SceneTarget ColorStrokeBlack" data-item-index="0" data-renderer-id="0" transform="translate(446, 74)"><g id="face_1urssqf1cvhyj2-stroke" fill="none" stroke-linecap="round" stroke-linejoin="round" stroke-miterlimit="4" stroke="#666666" stroke-width="2"><g><path d="M 46.599998 39.681999C 43.599998 36.681999 37.599998 35.181999 34.599998 38.181999M 16.9 45.681999C 16.6 44.482002 16.6 43.281998 16.6 41.781998C 16.6 25.581999 29.799999 12.382 46 12.382C 62.199997 12.382 75.399994 25.581999 75.399994 41.781998C 75.399994 52.582001 69.699997 61.882004 61 66.981995M 40.449997 77.800003C 46.449997 75.399994 45.324997 70.111 44.125 65.311005L 53.677002 61.612C 55.891281 60.755096 57.049278 58.316589 56.314003 56.059002L 56.313999 56.058998C 55.93375 54.891376 55.08989 53.931606 53.980541 53.405022C 52.871193 52.878433 51.594067 52.831413 50.449001 53.275002L 32.875 60.084999C 31.375 60.685001 29.575001 59.485001 29.575001 57.985001L 29.458 55.144001C 29.410076 53.986492 28.88414 52.900726 28.005583 52.145561C 27.127028 51.390404 25.974579 51.03352 24.823002 51.160004L 24.823 51.16C 22.704519 51.393932 21.100885 53.183647 21.1 55.315002L 21.1 67.584999C 21.1 75.385002 28.299999 81.084999 35.800003 79.284996C 35.800003 79.284996 38.949997 78.399994 40.449997 77.800003ZM 31.825001 27.681999C 31.20368 27.681999 30.700001 27.178322 30.700001 26.556999C 30.700001 25.93568 31.20368 25.431999 31.825001 25.431999M 31.825001 27.681999C 32.44632 27.681999 32.950001 27.178322 32.950001 26.556999C 32.950001 25.93568 32.44632 25.431999 31.825001 25.431999M 47.800003 27.681999C 47.17868 27.681999 46.675003 27.178322 46.675003 26.556999C 46.675003 25.93568 47.17868 25.431999 47.800003 25.431999M 47.800003 27.681999C 48.421322 27.681999 48.925003 27.178322 48.925003 26.556999C 48.925003 25.93568 48.421322 25.431999 47.800003 25.431999"></path></g></g></g><g id="g-root-tx_usedense_1hd7trr1cvul1p-stroke" data-item-order="0" data-item-id="tx_usedense_1hd7trr1cvul1p" data-item-class="Label Stroke SceneTarget Indexed Indexed_1" data-item-index="1" data-renderer-id="0" transform="translate(2, 98)"></g><g id="g-root-netw_1upxdh31cvkr2e-stroke" data-item-order="0" data-item-id="netw_1upxdh31cvkr2e" data-item-class="Icon Stroke SceneTarget Indexed Indexed_1 InsideFill" data-item-index="1" data-renderer-id="0" transform="translate(326, 92)"><g id="netw_1upxdh31cvkr2e-stroke" fill="none" stroke-linecap="round" stroke-linejoin="round" stroke-miterlimit="4" stroke="#886AFF" stroke-width="2"><g><path d="M 37.75 20.464001C 37.752487 25.866173 33.375172 30.247515 27.973 30.25C 22.54723 30.159611 18.208088 25.713364 18.25 20.287001C 18.252094 15.101928 22.397598 10.869129 27.581501 10.759C 27.7225 10.75 27.862 10.75 28 10.75C 30.584249 10.734797 33.067574 11.752192 34.898323 13.576181C 36.729069 15.400169 37.755646 17.879713 37.75 20.464001ZM 27.581499 10.759C 22.4935 16.27 22.4935 23.459499 27.581499 30.2425M 28.4275 10.759C 33.515499 16.27 33.515499 23.458 28.4275 30.2395M 19.861 25.75L 36.202 25.75M 19.679501 15.25L 36.243999 15.25M 18.25 20.5L 37.75 20.5M 24.604 37.525002C 24.604 39.471802 26.182196 41.049999 28.129 41.049999C 30.075804 41.049999 31.653999 39.471802 31.653999 37.525002C 31.653999 35.578194 30.075804 34 28.129 34C 26.182196 34 24.604 35.578194 24.604 37.525002ZM 13.516 37.525002C 13.516 39.471802 15.094196 41.049999 17.041 41.049999C 18.987804 41.049999 20.566 39.471802 20.566 37.525002C 20.566 35.578194 18.987804 34 17.041 34C 15.094196 34 13.516 35.578194 13.516 37.525002ZM 35.445999 37.525002C 35.445999 39.471802 37.024197 41.049999 38.971001 41.049999C 40.917801 41.049999 42.495998 39.471802 42.495998 37.525002C 42.495998 35.578194 40.917801 34 38.971001 34C 37.024197 34 35.445999 35.578194 35.445999 37.525002ZM 44.5 45.25C 43.166508 43.595676 41.155853 42.633862 39.030998 42.633862C 36.906151 42.633862 34.895493 43.595676 33.562 45.25C 32.18293 43.603233 30.147932 42.6483 28.000002 42.639999M 11.5 45.25C 12.833491 43.595676 14.844149 42.633862 16.969 42.633862C 19.093851 42.633862 21.104509 43.595676 22.438002 45.25C 23.817072 43.603233 25.85207 42.6483 28.000002 42.639999"></path></g></g></g><g id="g-root-onli_1hd7wxj1cvkqh9-stroke" data-item-order="0" data-item-id="onli_1hd7wxj1cvkqh9" data-item-class="Icon Stroke SceneTarget Indexed InsideFill" data-item-index="2" data-renderer-id="0" transform="translate(602, 92)"><g id="onli_1hd7wxj1cvkqh9-stroke" fill="none" stroke-linecap="round" stroke-linejoin="round" stroke-miterlimit="4" stroke="#1AC6FF" stroke-width="2"><g><path d="M 33.566502 34.943501C 33.566498 36.208508 34.591991 37.234001 35.856998 37.234001C 37.122009 37.234001 38.147499 36.208508 38.147499 34.943501C 38.147499 33.67849 37.122009 32.653 35.856998 32.653C 34.591991 32.653 33.566498 33.67849 33.566498 34.943501M 37.802498 26.083L 38.477501 28.299999C 38.70694 29.064713 39.490463 29.520126 40.268497 29.341L 42.518501 28.819C 43.393669 28.619684 44.29649 29.014488 44.744331 29.792358C 45.192177 30.570229 45.080296 31.549227 44.468498 32.206001L 42.895 33.9025C 42.351665 34.489578 42.351665 35.39592 42.895 35.983002L 44.468498 37.679497C 45.080296 38.336273 45.192177 39.315273 44.744331 40.093143C 44.29649 40.871014 43.393669 41.265816 42.518501 41.066502L 40.268501 40.546001C 39.490902 40.366741 38.707565 40.821392 38.477501 41.585499L 37.802498 43.804001C 37.543182 44.661575 36.752926 45.248207 35.857002 45.248207C 34.961075 45.248207 34.170818 44.661575 33.911499 43.804001L 33.235001 41.585499C 33.004936 40.821392 32.2216 40.366741 31.444 40.546001L 29.194 41.066502C 28.318192 41.268169 27.413448 40.873814 26.965031 40.094948C 26.516613 39.316082 26.629848 38.335648 27.243999 37.679497L 28.817501 35.983002C 29.360836 35.39592 29.360836 34.489578 28.817501 33.9025L 27.25 32.200001C 26.635847 31.543854 26.522612 30.563416 26.971031 29.78455C 27.419447 29.005684 28.324192 28.611328 29.199999 28.813L 31.450001 29.335001C 32.224297 29.511106 33.003189 29.059481 33.235001 28.299999L 33.911499 26.083C 34.169052 25.22366 34.959892 24.635086 35.857002 24.635086C 36.754105 24.635086 37.544949 25.22366 37.802498 26.083ZM 22.2745 45.107502L 23.419001 38.236M 18.838001 45.107502L 29.527 45.107502M 23.4505 38.236L 15.4 38.236C 12.871155 38.234344 10.822 36.183846 10.822 33.654999L 10.822 15.330999C 10.822 12.802155 12.871155 10.751657 15.4 10.75L 40.599998 10.75C 43.130016 10.75 45.181 12.800983 45.181 15.330999L 45.181 24.1105M 22.846001 17.105499L 19.591 21.445C 19.391697 21.710087 19.087328 21.875832 18.756517 21.89942C 18.425705 21.923008 18.100899 21.802126 17.865999 21.568001L 16.098999 19.801001M 22.846001 25.885L 19.591 30.224499C 19.392298 30.490459 19.087778 30.656885 18.75663 30.680496C 18.425482 30.704109 18.10043 30.582575 17.866001 30.3475L 16.098999 28.581999M 29.527 18.765999L 37.925499 18.765999"></path></g></g></g><g id="g-root-tx_useeffec_1lr5wmv1cvum0z-stroke" data-item-order="0" data-item-id="tx_useeffec_1lr5wmv1cvum0z" data-item-class="Label Stroke SceneTarget Indexed" data-item-index="2" data-renderer-id="0" transform="translate(662, 98)"></g><g id="g-root-tx_ineffici_m98cqf1cvumto-stroke" data-item-order="0" data-item-id="tx_ineffici_m98cqf1cvumto" data-item-class="Label Stroke SceneTarget Indexed Indexed_1" data-item-index="1" data-renderer-id="0" transform="translate(50, 134)"></g><g id="g-root-tx_efficien_v2zxpz1cvun0q-stroke" data-item-order="0" data-item-id="tx_efficien_v2zxpz1cvun0q" data-item-class="Label Stroke SceneTarget Indexed" data-item-index="2" data-renderer-id="0" transform="translate(662, 134)"></g></g></g></svg>