<?xml version="1.0" encoding="utf-8" standalone="yes"?>
<!DOCTYPE svg PUBLIC "-//W3C//DTD SVG 1.1//EN" "http://www.w3.org/Graphics/SVG/1.1/DTD/svg11.dtd">
<svg width="939" height="465" viewBox="0 0 939 465" style="fill:none;stroke:none;fill-rule:evenodd;clip-rule:evenodd;stroke-linecap:round;stroke-linejoin:round;stroke-miterlimit:1.5;" version="1.1" xmlns="http://www.w3.org/2000/svg" xmlns:xlink="http://www.w3.org/1999/xlink"><style id="fontImports">@import url("https://fonts.googleapis.com/css2?family=Roboto:wght@400;700&amp;display=block");</style><g id="items" style="isolation: isolate"><g id="blend" style="mix-blend-mode:multiply"><g id="g-root-di_93egtz1h17mrp-fill" data-item-order="-20738" data-item-id="di_93egtz1h17mrp" data-item-class="Shape Stroke Fill" data-item-index="none" data-renderer-id="0" transform="translate(462.9974365234375, 168.998291015625)"><g id="di_93egtz1h17mrp-fill" stroke="none" fill="#fef2e6"><g><path d="M 10 58L 118 106L 226.01 58L 118 10Z"></path></g></g></g><g id="g-root-di_1haq3sn1h1hibw-fill" data-item-order="-18432" data-item-id="di_1haq3sn1h1hibw" data-item-class="Shape Stroke Fill" data-item-index="none" data-renderer-id="0" transform="translate(462.99835205078125, 3)"><g id="di_1haq3sn1h1hibw-fill" stroke="none" fill="#fef2e6"><g><path d="M 10 58.000244L 106 106.000244L 202 58.000244L 106 10.000244Z"></path></g></g></g><g id="g-root-ro_4gpkfr1h1hg5e-fill" data-item-order="-12960" data-item-id="ro_4gpkfr1h1hg5e" data-item-class="Shape Stroke Fill" data-item-index="none" data-renderer-id="0" transform="translate(227, 15.000244140625)"><g id="ro_4gpkfr1h1hg5e-fill" stroke="none" fill="#e6f9ff"><g><path d="M 22 10L 178 10C 178 10 190 10 190 22L 190 70C 190 70 190 82 178 82L 22 82C 22 82 10 82 10 70L 10 22C 10 22 10 10 22 10"></path></g></g></g><g id="g-root-ro_14157071h1iux2-fill" data-item-order="-12960" data-item-id="ro_14157071h1iux2" data-item-class="Shape Stroke Fill" data-item-index="none" data-renderer-id="0" transform="translate(227, 369.000244140625)"><g id="ro_14157071h1iux2-fill" stroke="none" fill="#e6f9ff"><g><path d="M 22 10L 178 10C 178 10 190 10 190 22L 190 70C 190 70 190 82 178 82L 22 82C 22 82 10 82 10 70L 10 22C 10 22 10 10 22 10"></path></g></g></g><g id="g-root-ro_zlbovr1h1db0n-fill" data-item-order="-12960" data-item-id="ro_zlbovr1h1db0n" data-item-class="Shape Stroke Fill" data-item-index="none" data-renderer-id="0" transform="translate(735.0000610351562, 273.000244140625)"><g id="ro_zlbovr1h1db0n-fill" stroke="none" fill="#e6f9ff"><g><path d="M 22 10L 178 10C 178 10 190 10 190 22L 190 70C 190 70 190 82 178 82L 22 82C 22 82 10 82 10 70L 10 22C 10 22 10 10 22 10"></path></g></g></g><g id="g-root-ro_1lxf06v1h1agi3-fill" data-item-order="-12960" data-item-id="ro_1lxf06v1h1agi3" data-item-class="Shape Stroke Fill" data-item-index="none" data-renderer-id="0" transform="translate(735.0000610351562, 181.000244140625)"><g id="ro_1lxf06v1h1agi3-fill" stroke="none" fill="#e6f9ff"><g><path d="M 22 10L 178 10C 178 10 190 10 190 22L 190 70C 190 70 190 82 178 82L 22 82C 22 82 10 82 10 70L 10 22C 10 22 10 10 22 10"></path></g></g></g><g id="g-root-ro_zpp0hj1h17mrn-fill" data-item-order="-12960" data-item-id="ro_zpp0hj1h17mrn" data-item-class="Shape Stroke Fill" data-item-index="none" data-renderer-id="0" transform="translate(227, 181.000244140625)"><g id="ro_zpp0hj1h17mrn-fill" stroke="none" fill="#e6f9ff"><g><path d="M 22 10L 178 10C 178 10 190 10 190 22L 190 70C 190 70 190 82 178 82L 22 82C 22 82 10 82 10 70L 10 22C 10 22 10 10 22 10"></path></g></g></g><g id="g-root-ro_8z122f1h1ahhe-fill" data-item-order="-12960" data-item-id="ro_8z122f1h1ahhe" data-item-class="Shape Stroke Fill" data-item-index="none" data-renderer-id="0" transform="translate(735.0000610351562, 15.000244140625)"><g id="ro_8z122f1h1ahhe-fill" stroke="none" fill="#e6f9ff"><g><path d="M 22 10L 178 10C 178 10 190 10 190 22L 190 70C 190 70 190 82 178 82L 22 82C 22 82 10 82 10 70L 10 22C 10 22 10 10 22 10"></path></g></g></g><g id="g-root-ro_qtf9o71h192px-fill" data-item-order="-12096" data-item-id="ro_qtf9o71h192px" data-item-class="Shape Stroke Fill" data-item-index="none" data-renderer-id="0" transform="translate(3, 181.000244140625)"><g id="ro_qtf9o71h192px-fill" stroke="none" fill="#f0f0f0"><g><path d="M 22 10L 166 10C 166 10 178 10 178 22L 178 70C 178 70 178 82 166 82L 22 82C 22 82 10 82 10 70L 10 22C 10 22 10 10 22 10"></path></g></g></g><g id="g-root-ro_hwjhkn1h1louc-fill" data-item-order="-9720" data-item-id="ro_hwjhkn1h1louc" data-item-class="Shape Stroke Fill" data-item-index="none" data-renderer-id="0" transform="translate(735.0000610351562, 107.000244140625)"><g id="ro_hwjhkn1h1louc-fill" stroke="none" fill="#e6f9ff"><g><path d="M 22 10L 178 10C 178 10 190 10 190 22L 190 52C 190 52 190 64 178 64L 22 64C 22 64 10 64 10 52L 10 22C 10 22 10 10 22 10"></path></g></g></g><g id="g-root-tx_stackove_1um6m5z1h1hgqz-fill" data-item-order="0" data-item-id="tx_stackove_1um6m5z1h1hgqz" data-item-class="Label Stroke" data-item-index="none" data-renderer-id="0" transform="translate(511, 27.000244140625)"><g id="tx_stackove_1um6m5z1h1hgqz-fill" stroke="none" fill="#dd8433"><g><text style="font: 20px Roboto, sans-serif; white-space: pre;"><tspan x="33.06" y="33.47" dominant-baseline="ideographic">Stack </tspan><tspan x="14.04" y="57.47" dominant-baseline="ideographic">Overflow?</tspan></text></g></g></g><g id="g-root-up_hrjlpz1h1hhq9-fill" data-item-order="0" data-item-id="up_hrjlpz1h1hhq9" data-item-class="Icon Stroke" data-item-index="none" data-renderer-id="0" transform="translate(239, 36.000244140625)"></g><g id="g-root-tx_removeel_1unfqnr1h1da8d-fill" data-item-order="0" data-item-id="tx_removeel_1unfqnr1h1da8d" data-item-class="Label Stroke" data-item-index="none" data-renderer-id="0" transform="translate(783.0000610351562, 285.000244140625)"><g id="tx_removeel_1unfqnr1h1da8d-fill" stroke="none" fill="#17b0e3"><g><text style="font: 20px Roboto, sans-serif; white-space: pre;"><tspan x="12" y="33.47" dominant-baseline="ideographic">Remove </tspan><tspan x="12" y="57.47" dominant-baseline="ideographic">Element</tspan></text></g></g></g><g id="g-root-tx_no_m98pfb1h1n4ln-fill" data-item-order="0" data-item-id="tx_no_m98pfb1h1n4ln" data-item-class="Label Stroke" data-item-index="none" data-renderer-id="0" transform="translate(571, 99.000244140625)"><g id="tx_no_m98pfb1h1n4ln-fill" stroke="none" fill="#484848"><g><text style="font: 20px Roboto, sans-serif; white-space: pre;"><tspan x="12" y="33.47" dominant-baseline="ideographic">No</tspan></text></g></g></g><g id="g-root-tx_expandfu_dcz83b1h1ivws-fill" data-item-order="0" data-item-id="tx_expandfu_dcz83b1h1ivws" data-item-class="Label Stroke" data-item-index="none" data-renderer-id="0" transform="translate(275, 393.000244140625)"><g id="tx_expandfu_dcz83b1h1ivws-fill" stroke="none" fill="#17b0e3"><g><text style="font: 20px Roboto, sans-serif; white-space: pre;"><tspan x="12" y="33.47" dominant-baseline="ideographic">Display</tspan></text></g></g></g><g id="g-root-squa_v7diuv1h1lqf7-fill" data-item-order="0" data-item-id="squa_v7diuv1h1lqf7" data-item-class="Icon Stroke" data-item-index="none" data-renderer-id="0" transform="translate(747.0000610351562, 119.000244140625)"></g><g id="g-root-tx_addeleme_1cynjcn1h1lo22-fill" data-item-order="0" data-item-id="tx_addeleme_1cynjcn1h1lo22" data-item-class="Label Stroke" data-item-index="none" data-renderer-id="0" transform="translate(783.0000610351562, 122.000244140625)"><g id="tx_addeleme_1cynjcn1h1lo22-fill" stroke="none" fill="#17b0e3"><g><text style="font: 20px Roboto, sans-serif; white-space: pre;"><tspan x="12" y="33.47" dominant-baseline="ideographic">Add Element</tspan></text></g></g></g><g id="g-root-tx_errorsta_1cws43b1h1afwg-fill" data-item-order="0" data-item-id="tx_errorsta_1cws43b1h1afwg" data-item-class="Label Stroke" data-item-index="none" data-renderer-id="0" transform="translate(783.0000610351562, 27.000244140625)"><g id="tx_errorsta_1cws43b1h1afwg-fill" stroke="none" fill="#17b0e3"><g><text style="font: 20px Roboto, sans-serif; white-space: pre;"><tspan x="12" y="33.47" dominant-baseline="ideographic">Error: Stack </tspan><tspan x="12" y="57.47" dominant-baseline="ideographic">Overflow</tspan></text></g></g></g><g id="g-root-warn_qqb2k71h1af49-fill" data-item-order="0" data-item-id="warn_qqb2k71h1af49" data-item-class="Icon Stroke" data-item-index="none" data-renderer-id="0" transform="translate(747.0000610351562, 36.000244140625)"></g><g id="g-root-tx_yes_8yeo531h1n30s-fill" data-item-order="0" data-item-id="tx_yes_8yeo531h1n30s" data-item-class="Label Stroke" data-item-index="none" data-renderer-id="0" transform="translate(655, 15.000244140625)"><g id="tx_yes_8yeo531h1n30s-fill" stroke="none" fill="#484848"><g><text style="font: 20px Roboto, sans-serif; white-space: pre;"><tspan x="12" y="33.47" dominant-baseline="ideographic">Yes</tspan></text></g></g></g><g id="g-root-stac_1ur6bp31h19150-fill" data-item-order="0" data-item-id="stac_1ur6bp31h19150" data-item-class="Icon Stroke" data-item-index="none" data-renderer-id="0" transform="translate(15, 202.000244140625)"></g><g id="g-root-left_145iilz1h17lze-fill" data-item-order="0" data-item-id="left_145iilz1h17lze" data-item-class="Icon Stroke" data-item-index="none" data-renderer-id="0" transform="translate(239, 202.000244140625)"></g><g id="g-root-tx_popopera_1urt29j1h17lzd-fill" data-item-order="0" data-item-id="tx_popopera_1urt29j1h17lzd" data-item-class="Label Stroke" data-item-index="none" data-renderer-id="0" transform="translate(275, 193.000244140625)"><g id="tx_popopera_1urt29j1h17lzd-fill" stroke="none" fill="#17b0e3"><g><text style="font: 20px Roboto, sans-serif; white-space: pre;"><tspan x="12" y="33.47" dominant-baseline="ideographic">Pop </tspan><tspan x="12" y="57.47" dominant-baseline="ideographic">Operation</tspan></text></g></g></g><g id="g-root-tx_stackund_me8i471h17ock-fill" data-item-order="0" data-item-id="tx_stackund_me8i471h17ock" data-item-class="Label Stroke" data-item-index="none" data-renderer-id="0" transform="translate(516.9999389648438, 192.999755859375)"><g id="tx_stackund_me8i471h17ock-fill" stroke="none" fill="#dd8433"><g><text style="font: 20px Roboto, sans-serif; white-space: pre;"><tspan x="39.06" y="33.47" dominant-baseline="ideographic">Stack </tspan><tspan x="14.06" y="57.47" dominant-baseline="ideographic">Underflow?</tspan></text></g></g></g><g id="g-root-tx_yes_1hd86gn1h1n2tq-fill" data-item-order="0" data-item-id="tx_yes_1hd86gn1h1n2tq" data-item-class="Label Stroke" data-item-index="none" data-renderer-id="0" transform="translate(679, 181.000244140625)"><g id="tx_yes_1hd86gn1h1n2tq-fill" stroke="none" fill="#484848"><g><text style="font: 20px Roboto, sans-serif; white-space: pre;"><tspan x="12" y="33.47" dominant-baseline="ideographic">Yes</tspan></text></g></g></g><g id="g-root-tx_implemen_qs6bhz1h190jv-fill" data-item-order="0" data-item-id="tx_implemen_qs6bhz1h190jv" data-item-class="Label Stroke" data-item-index="none" data-renderer-id="0" transform="translate(51, 205.000244140625)"><g id="tx_implemen_qs6bhz1h190jv-fill" stroke="none" fill="#484848"><g><text style="font: 20px Roboto, sans-serif; white-space: pre;"><tspan x="12" y="33.47" dominant-baseline="ideographic">Stack</tspan></text></g></g></g><g id="g-root-warn_7rgl31h1af4a-fill" data-item-order="0" data-item-id="warn_7rgl31h1af4a" data-item-class="Icon Stroke" data-item-index="none" data-renderer-id="0" transform="translate(747.0000610351562, 202.000244140625)"></g><g id="g-root-tx_errorsta_me8i471h1afwh-fill" data-item-order="0" data-item-id="tx_errorsta_me8i471h1afwh" data-item-class="Label Stroke" data-item-index="none" data-renderer-id="0" transform="translate(783.0000610351562, 193.000244140625)"><g id="tx_errorsta_me8i471h1afwh-fill" stroke="none" fill="#17b0e3"><g><text style="font: 20px Roboto, sans-serif; white-space: pre;"><tspan x="12" y="33.47" dominant-baseline="ideographic">Error: Stack </tspan><tspan x="12" y="57.47" dominant-baseline="ideographic">Underflow</tspan></text></g></g></g><g id="g-root-tx_pushoper_v3043b1h1hg5c-fill" data-item-order="0" data-item-id="tx_pushoper_v3043b1h1hg5c" data-item-class="Label Stroke" data-item-index="none" data-renderer-id="0" transform="translate(275, 27.000244140625)"><g id="tx_pushoper_v3043b1h1hg5c-fill" stroke="none" fill="#17b0e3"><g><text style="font: 20px Roboto, sans-serif; white-space: pre;"><tspan x="12" y="33.47" dominant-baseline="ideographic">Push </tspan><tspan x="12" y="57.47" dominant-baseline="ideographic">Operation</tspan></text></g></g></g><g id="g-root-1_1lrsqev1h1ivpp-fill" data-item-order="0" data-item-id="1_1lrsqev1h1ivpp" data-item-class="Icon Stroke" data-item-index="none" data-renderer-id="0" transform="translate(239, 390.000244140625)"></g><g id="g-root-bloc_1cws7931h1d9fq-fill" data-item-order="0" data-item-id="bloc_1cws7931h1d9fq" data-item-class="Icon Stroke" data-item-index="none" data-renderer-id="0" transform="translate(747.0000610351562, 294.000244140625)"></g><g id="g-root-tx_no_1uo27qv1h1n4el-fill" data-item-order="0" data-item-id="tx_no_1uo27qv1h1n4el" data-item-class="Label Stroke" data-item-index="none" data-renderer-id="0" transform="translate(583, 265.000244140625)"><g id="tx_no_1uo27qv1h1n4el-fill" stroke="none" fill="#484848"><g><text style="font: 20px Roboto, sans-serif; white-space: pre;"><tspan x="12" y="33.47" dominant-baseline="ideographic">No</tspan></text></g></g></g><g id="g-root-cu_1hf3lpz1h1n2mg-fill" data-item-order="2" data-item-id="cu_1hf3lpz1h1n2mg" data-item-class="Curve Stroke" data-item-index="none" data-renderer-id="0" transform="translate(407, 51.000244140625)"></g><g id="g-root-cu_1luamrb1h1n4zx-fill" data-item-order="2" data-item-id="cu_1luamrb1h1n4zx" data-item-class="Curve Stroke" data-item-index="none" data-renderer-id="0" transform="translate(655.0016479492188, 51.000244140625)"></g><g id="g-root-cu_4n35j1h1n3m2-fill" data-item-order="2" data-item-id="cu_4n35j1h1n3m2" data-item-class="Curve Stroke" data-item-index="none" data-renderer-id="0" transform="translate(559, 99.00048828125)"></g><g id="g-root-cu_1cza3lj1h1n3er-fill" data-item-order="2" data-item-id="cu_1cza3lj1h1n3er" data-item-class="Curve Stroke" data-item-index="none" data-renderer-id="0" transform="translate(171, 51.000244140625)"></g><g id="g-root-cu_v6r4xj1h1n2tg-fill" data-item-order="2" data-item-id="cu_v6r4xj1h1n2tg" data-item-class="Curve Stroke" data-item-index="none" data-renderer-id="0" transform="translate(171, 217.000244140625)"></g><g id="g-root-cu_4n35j1h1n3m0-fill" data-item-order="2" data-item-id="cu_4n35j1h1n3m0" data-item-class="Curve Stroke" data-item-index="none" data-renderer-id="0" transform="translate(171, 217.000244140625)"></g><g id="g-root-cu_4kgl9z1h1n2tp-fill" data-item-order="2" data-item-id="cu_4kgl9z1h1n2tp" data-item-class="Curve Stroke" data-item-index="none" data-renderer-id="0" transform="translate(407, 217.000244140625)"></g><g id="g-root-cu_hvamk71h1n4ei-fill" data-item-order="2" data-item-id="cu_hvamk71h1n4ei" data-item-class="Curve Stroke" data-item-index="none" data-renderer-id="0" transform="translate(679.0025634765625, 217.000244140625)"></g><g id="g-root-cu_mb44on1h1n3m7-fill" data-item-order="2" data-item-id="cu_mb44on1h1n3m7" data-item-class="Curve Stroke" data-item-index="none" data-renderer-id="0" transform="translate(571, 265.003173828125)"></g><g id="g-root-di_93egtz1h17mrp-stroke" data-item-order="-20738" data-item-id="di_93egtz1h17mrp" data-item-class="Shape Stroke Fill" data-item-index="none" data-renderer-id="0" transform="translate(462.9974365234375, 168.998291015625)"><g id="di_93egtz1h17mrp-stroke" fill="none" stroke-linecap="round" stroke-linejoin="round" stroke-miterlimit="4" stroke="#dd8433" stroke-width="2"><g><path d="M 10 58L 118 106L 226.01 58L 118 10Z"></path></g></g></g><g id="g-root-di_1haq3sn1h1hibw-stroke" data-item-order="-18432" data-item-id="di_1haq3sn1h1hibw" data-item-class="Shape Stroke Fill" data-item-index="none" data-renderer-id="0" transform="translate(462.99835205078125, 3)"><g id="di_1haq3sn1h1hibw-stroke" fill="none" stroke-linecap="round" stroke-linejoin="round" stroke-miterlimit="4" stroke="#dd8433" stroke-width="2"><g><path d="M 10 58.000244L 106 106.000244L 202 58.000244L 106 10.000244Z"></path></g></g></g><g id="g-root-ro_4gpkfr1h1hg5e-stroke" data-item-order="-12960" data-item-id="ro_4gpkfr1h1hg5e" data-item-class="Shape Stroke Fill" data-item-index="none" data-renderer-id="0" transform="translate(227, 15.000244140625)"><g id="ro_4gpkfr1h1hg5e-stroke" fill="none" stroke-linecap="round" stroke-linejoin="round" stroke-miterlimit="4" stroke="#17b0e3" stroke-width="2"><g><path d="M 22 10L 178 10C 178 10 190 10 190 22L 190 70C 190 70 190 82 178 82L 22 82C 22 82 10 82 10 70L 10 22C 10 22 10 10 22 10"></path></g></g></g><g id="g-root-ro_14157071h1iux2-stroke" data-item-order="-12960" data-item-id="ro_14157071h1iux2" data-item-class="Shape Stroke Fill" data-item-index="none" data-renderer-id="0" transform="translate(227, 369.000244140625)"><g id="ro_14157071h1iux2-stroke" fill="none" stroke-linecap="round" stroke-linejoin="round" stroke-miterlimit="4" stroke="#17b0e3" stroke-width="2"><g><path d="M 22 10L 178 10C 178 10 190 10 190 22L 190 70C 190 70 190 82 178 82L 22 82C 22 82 10 82 10 70L 10 22C 10 22 10 10 22 10"></path></g></g></g><g id="g-root-ro_zlbovr1h1db0n-stroke" data-item-order="-12960" data-item-id="ro_zlbovr1h1db0n" data-item-class="Shape Stroke Fill" data-item-index="none" data-renderer-id="0" transform="translate(735.0000610351562, 273.000244140625)"><g id="ro_zlbovr1h1db0n-stroke" fill="none" stroke-linecap="round" stroke-linejoin="round" stroke-miterlimit="4" stroke="#17b0e3" stroke-width="2"><g><path d="M 22 10L 178 10C 178 10 190 10 190 22L 190 70C 190 70 190 82 178 82L 22 82C 22 82 10 82 10 70L 10 22C 10 22 10 10 22 10"></path></g></g></g><g id="g-root-ro_1lxf06v1h1agi3-stroke" data-item-order="-12960" data-item-id="ro_1lxf06v1h1agi3" data-item-class="Shape Stroke Fill" data-item-index="none" data-renderer-id="0" transform="translate(735.0000610351562, 181.000244140625)"><g id="ro_1lxf06v1h1agi3-stroke" fill="none" stroke-linecap="round" stroke-linejoin="round" stroke-miterlimit="4" stroke="#17b0e3" stroke-width="2"><g><path d="M 22 10L 178 10C 178 10 190 10 190 22L 190 70C 190 70 190 82 178 82L 22 82C 22 82 10 82 10 70L 10 22C 10 22 10 10 22 10"></path></g></g></g><g id="g-root-ro_zpp0hj1h17mrn-stroke" data-item-order="-12960" data-item-id="ro_zpp0hj1h17mrn" data-item-class="Shape Stroke Fill" data-item-index="none" data-renderer-id="0" transform="translate(227, 181.000244140625)"><g id="ro_zpp0hj1h17mrn-stroke" fill="none" stroke-linecap="round" stroke-linejoin="round" stroke-miterlimit="4" stroke="#17b0e3" stroke-width="2"><g><path d="M 22 10L 178 10C 178 10 190 10 190 22L 190 70C 190 70 190 82 178 82L 22 82C 22 82 10 82 10 70L 10 22C 10 22 10 10 22 10"></path></g></g></g><g id="g-root-ro_8z122f1h1ahhe-stroke" data-item-order="-12960" data-item-id="ro_8z122f1h1ahhe" data-item-class="Shape Stroke Fill" data-item-index="none" data-renderer-id="0" transform="translate(735.0000610351562, 15.000244140625)"><g id="ro_8z122f1h1ahhe-stroke" fill="none" stroke-linecap="round" stroke-linejoin="round" stroke-miterlimit="4" stroke="#17b0e3" stroke-width="2"><g><path d="M 22 10L 178 10C 178 10 190 10 190 22L 190 70C 190 70 190 82 178 82L 22 82C 22 82 10 82 10 70L 10 22C 10 22 10 10 22 10"></path></g></g></g><g id="g-root-ro_qtf9o71h192px-stroke" data-item-order="-12096" data-item-id="ro_qtf9o71h192px" data-item-class="Shape Stroke Fill" data-item-index="none" data-renderer-id="0" transform="translate(3, 181.000244140625)"><g id="ro_qtf9o71h192px-stroke" fill="none" stroke-linecap="round" stroke-linejoin="round" stroke-miterlimit="4" stroke="#484848" stroke-width="2"><g><path d="M 22 10L 166 10C 166 10 178 10 178 22L 178 70C 178 70 178 82 166 82L 22 82C 22 82 10 82 10 70L 10 22C 10 22 10 10 22 10"></path></g></g></g><g id="g-root-ro_hwjhkn1h1louc-stroke" data-item-order="-9720" data-item-id="ro_hwjhkn1h1louc" data-item-class="Shape Stroke Fill" data-item-index="none" data-renderer-id="0" transform="translate(735.0000610351562, 107.000244140625)"><g id="ro_hwjhkn1h1louc-stroke" fill="none" stroke-linecap="round" stroke-linejoin="round" stroke-miterlimit="4" stroke="#17b0e3" stroke-width="2"><g><path d="M 22 10L 178 10C 178 10 190 10 190 22L 190 52C 190 52 190 64 178 64L 22 64C 22 64 10 64 10 52L 10 22C 10 22 10 10 22 10"></path></g></g></g><g id="g-root-tx_stackove_1um6m5z1h1hgqz-stroke" data-item-order="0" data-item-id="tx_stackove_1um6m5z1h1hgqz" data-item-class="Label Stroke" data-item-index="none" data-renderer-id="0" transform="translate(511, 27.000244140625)"></g><g id="g-root-up_hrjlpz1h1hhq9-stroke" data-item-order="0" data-item-id="up_hrjlpz1h1hhq9" data-item-class="Icon Stroke" data-item-index="none" data-renderer-id="0" transform="translate(239, 36.000244140625)"><g id="up_hrjlpz1h1hhq9-stroke" fill="none" stroke-linecap="round" stroke-linejoin="round" stroke-miterlimit="4" stroke="#17b0e3" stroke-width="2"><g><path d="M 24.376251 24.373749L 24.376251 10.62375M 19.376249 15.62375L 24.376251 10.62375L 29.376251 15.62375M 11.87625 30.623751L 38.126251 30.623751C 38.126251 30.623751 39.376251 30.623751 39.376251 31.873751L 39.376251 38.123749C 39.376251 38.123749 39.376251 39.373749 38.126251 39.373749L 11.87625 39.373749C 11.87625 39.373749 10.62625 39.373749 10.62625 38.123749L 10.62625 31.873751C 10.62625 31.873751 10.62625 30.623751 11.87625 30.623751"></path></g></g></g><g id="g-root-tx_removeel_1unfqnr1h1da8d-stroke" data-item-order="0" data-item-id="tx_removeel_1unfqnr1h1da8d" data-item-class="Label Stroke" data-item-index="none" data-renderer-id="0" transform="translate(783.0000610351562, 285.000244140625)"></g><g id="g-root-tx_no_m98pfb1h1n4ln-stroke" data-item-order="0" data-item-id="tx_no_m98pfb1h1n4ln" data-item-class="Label Stroke" data-item-index="none" data-renderer-id="0" transform="translate(571, 99.000244140625)"></g><g id="g-root-tx_expandfu_dcz83b1h1ivws-stroke" data-item-order="0" data-item-id="tx_expandfu_dcz83b1h1ivws" data-item-class="Label Stroke" data-item-index="none" data-renderer-id="0" transform="translate(275, 393.000244140625)"></g><g id="g-root-squa_v7diuv1h1lqf7-stroke" data-item-order="0" data-item-id="squa_v7diuv1h1lqf7" data-item-class="Icon Stroke" data-item-index="none" data-renderer-id="0" transform="translate(747.0000610351562, 119.000244140625)"><g id="squa_v7diuv1h1lqf7-stroke" fill="none" stroke-linecap="round" stroke-linejoin="round" stroke-miterlimit="4" stroke="#17b0e3" stroke-width="2"><g><path d="M 25 18.571428L 25 31.42857M 18.571428 25L 31.42857 25M 17.5 11.071428L 32.5 11.071428C 32.5 11.071428 38.92857 11.071428 38.92857 17.5L 38.92857 32.5C 38.92857 32.5 38.92857 38.92857 32.5 38.92857L 17.5 38.92857C 17.5 38.92857 11.071428 38.92857 11.071428 32.5L 11.071428 17.5C 11.071428 17.5 11.071428 11.071428 17.5 11.071428"></path></g></g></g><g id="g-root-tx_addeleme_1cynjcn1h1lo22-stroke" data-item-order="0" data-item-id="tx_addeleme_1cynjcn1h1lo22" data-item-class="Label Stroke" data-item-index="none" data-renderer-id="0" transform="translate(783.0000610351562, 122.000244140625)"></g><g id="g-root-tx_errorsta_1cws43b1h1afwg-stroke" data-item-order="0" data-item-id="tx_errorsta_1cws43b1h1afwg" data-item-class="Label Stroke" data-item-index="none" data-renderer-id="0" transform="translate(783.0000610351562, 27.000244140625)"></g><g id="g-root-warn_qqb2k71h1af49-stroke" data-item-order="0" data-item-id="warn_qqb2k71h1af49" data-item-class="Icon Stroke" data-item-index="none" data-renderer-id="0" transform="translate(747.0000610351562, 36.000244140625)"><g id="warn_qqb2k71h1af49-stroke" fill="none" stroke-linecap="round" stroke-linejoin="round" stroke-miterlimit="4" stroke="#17b0e3" stroke-width="2"><g><path d="M 10.625 15.63L 35.625 15.63M 14.375 12.8175L 14.375 12.8175M 14.375 12.8175C 14.202411 12.8175 14.0625 12.957411 14.0625 13.13C 14.0625 13.302589 14.202411 13.4425 14.375 13.4425C 14.547589 13.4425 14.6875 13.302589 14.6875 13.13C 14.6875 12.957411 14.547589 12.8175 14.375 12.8175M 16.875 12.8175L 16.875 12.8175M 16.875 12.8175C 16.702412 12.8175 16.5625 12.957411 16.5625 13.13C 16.5625 13.302589 16.702412 13.4425 16.875 13.4425C 17.047588 13.4425 17.1875 13.302589 17.1875 13.13C 17.1875 12.957411 17.047588 12.8175 16.875 12.8175M 19.375 12.8175L 19.375 12.8175M 19.375 12.8175C 19.202412 12.8175 19.0625 12.957411 19.0625 13.13C 19.0625 13.302589 19.202412 13.4425 19.375 13.4425C 19.547588 13.4425 19.6875 13.302589 19.6875 13.13C 19.6875 12.957411 19.547588 12.8175 19.375 12.8175M 21.875 30.625L 13.125 30.625C 11.744288 30.625 10.625 29.505713 10.625 28.125L 10.625 13.125C 10.625 11.744288 11.744288 10.625 13.125 10.625L 33.125 10.625C 34.505714 10.625 35.625 11.744288 35.625 13.125L 35.625 23.125M 31.875 35.631248C 32.047588 35.631248 32.1875 35.77116 32.1875 35.943748C 32.1875 36.116341 32.047588 36.256248 31.875 36.256248C 31.702412 36.256248 31.5625 36.116341 31.5625 35.943748C 31.5625 35.77116 31.702412 35.631248 31.875 35.631248M 31.875 33.131248L 31.875 29.38125M 32.922501 25.635C 32.716022 25.248344 32.313335 25.006874 31.875 25.006874C 31.436668 25.006874 31.033978 25.248344 30.827501 25.635L 24.5075 37.677502C 24.317448 38.038517 24.332664 38.47316 24.547501 38.82C 24.762981 39.169453 25.144453 39.381958 25.555 39.381252L 38.195 39.381248C 38.605927 39.382149 38.987858 39.169647 39.203751 38.819996C 39.417686 38.472782 39.432419 38.038414 39.2425 37.677502Z"></path></g></g></g><g id="g-root-tx_yes_8yeo531h1n30s-stroke" data-item-order="0" data-item-id="tx_yes_8yeo531h1n30s" data-item-class="Label Stroke" data-item-index="none" data-renderer-id="0" transform="translate(655, 15.000244140625)"></g><g id="g-root-stac_1ur6bp31h19150-stroke" data-item-order="0" data-item-id="stac_1ur6bp31h19150" data-item-class="Icon Stroke" data-item-index="none" data-renderer-id="0" transform="translate(15, 202.000244140625)"><g id="stac_1ur6bp31h19150-stroke" fill="none" stroke-linecap="round" stroke-linejoin="round" stroke-miterlimit="4" stroke="#484848" stroke-width="2"><g><path d="M 20 10.625L 31.987499 10.625C 32.315426 10.626381 32.629673 10.75657 32.862503 10.9875L 35.887497 14.0125C 36.118431 14.245326 36.248619 14.559575 36.25 14.8875L 36.25 33.125C 36.25 33.815353 35.690353 34.375 35 34.375L 20 34.375C 19.309645 34.375 18.75 33.815353 18.75 33.125L 18.75 11.875C 18.75 11.184644 19.309645 10.625 20 10.625ZM 32.5 36.875L 17.5 36.875C 16.809645 36.875 16.25 36.315353 16.25 35.625L 16.25 14.375M 30 39.375L 15 39.375C 14.309644 39.375 13.75 38.815353 13.75 38.125L 13.75 16.875"></path></g></g></g><g id="g-root-left_145iilz1h17lze-stroke" data-item-order="0" data-item-id="left_145iilz1h17lze" data-item-class="Icon Stroke" data-item-index="none" data-renderer-id="0" transform="translate(239, 202.000244140625)"><g id="left_145iilz1h17lze-stroke" fill="none" stroke-linecap="round" stroke-linejoin="round" stroke-miterlimit="4" stroke="#17b0e3" stroke-width="2"><g><path d="M 19.375 39.37125L 10.625 39.37125L 10.625 30.62125M 10.625 39.37125L 30.625 19.37125"></path></g></g></g><g id="g-root-tx_popopera_1urt29j1h17lzd-stroke" data-item-order="0" data-item-id="tx_popopera_1urt29j1h17lzd" data-item-class="Label Stroke" data-item-index="none" data-renderer-id="0" transform="translate(275, 193.000244140625)"></g><g id="g-root-tx_stackund_me8i471h17ock-stroke" data-item-order="0" data-item-id="tx_stackund_me8i471h17ock" data-item-class="Label Stroke" data-item-index="none" data-renderer-id="0" transform="translate(516.9999389648438, 192.999755859375)"></g><g id="g-root-tx_yes_1hd86gn1h1n2tq-stroke" data-item-order="0" data-item-id="tx_yes_1hd86gn1h1n2tq" data-item-class="Label Stroke" data-item-index="none" data-renderer-id="0" transform="translate(679, 181.000244140625)"></g><g id="g-root-tx_implemen_qs6bhz1h190jv-stroke" data-item-order="0" data-item-id="tx_implemen_qs6bhz1h190jv" data-item-class="Label Stroke" data-item-index="none" data-renderer-id="0" transform="translate(51, 205.000244140625)"></g><g id="g-root-warn_7rgl31h1af4a-stroke" data-item-order="0" data-item-id="warn_7rgl31h1af4a" data-item-class="Icon Stroke" data-item-index="none" data-renderer-id="0" transform="translate(747.0000610351562, 202.000244140625)"><g id="warn_7rgl31h1af4a-stroke" fill="none" stroke-linecap="round" stroke-linejoin="round" stroke-miterlimit="4" stroke="#17b0e3" stroke-width="2"><g><path d="M 17.5 38.92857L 13.214286 38.92857C 12.030818 38.92857 11.071428 37.969181 11.071428 36.785713L 11.071428 13.214286C 11.071428 12.030818 12.030818 11.071428 13.214286 11.071428L 36.785713 11.071428C 37.969181 11.071428 38.92857 12.030818 38.92857 13.214286L 38.92857 36.785713C 38.92857 37.969181 37.969181 38.92857 36.785713 38.92857L 32.5 38.92857M 11.071428 17.5L 38.92857 17.5M 25 23.928572L 25 31.42857M 23.928572 37.857143C 23.928572 38.448875 24.408266 38.92857 25 38.92857C 25.591734 38.92857 26.071428 38.448875 26.071428 37.857143C 26.071428 37.265408 25.591734 36.785713 25 36.785713C 24.408266 36.785713 23.928572 37.265408 23.928572 37.857143"></path></g></g></g><g id="g-root-tx_errorsta_me8i471h1afwh-stroke" data-item-order="0" data-item-id="tx_errorsta_me8i471h1afwh" data-item-class="Label Stroke" data-item-index="none" data-renderer-id="0" transform="translate(783.0000610351562, 193.000244140625)"></g><g id="g-root-tx_pushoper_v3043b1h1hg5c-stroke" data-item-order="0" data-item-id="tx_pushoper_v3043b1h1hg5c" data-item-class="Label Stroke" data-item-index="none" data-renderer-id="0" transform="translate(275, 27.000244140625)"></g><g id="g-root-1_1lrsqev1h1ivpp-stroke" data-item-order="0" data-item-id="1_1lrsqev1h1ivpp" data-item-class="Icon Stroke" data-item-index="none" data-renderer-id="0" transform="translate(239, 390.000244140625)"><g id="1_1lrsqev1h1ivpp-stroke" fill="none" stroke-linecap="round" stroke-linejoin="round" stroke-miterlimit="4" stroke="#17b0e3" stroke-width="2"><g><path d="M 28.214285 21.785713L 38.92857 11.071428M 30.357141 11.071428L 38.92857 11.071428L 38.92857 19.642857M 21.785713 21.785713L 11.071428 11.071428M 19.642857 11.071428L 11.071428 11.071428L 11.071428 19.642857M 28.214285 28.214285L 38.92857 38.92857M 30.357141 38.92857L 38.92857 38.92857L 38.92857 30.357141M 21.785713 28.214285L 11.071428 38.92857M 19.642857 38.92857L 11.071428 38.92857L 11.071428 30.357141"></path></g></g></g><g id="g-root-bloc_1cws7931h1d9fq-stroke" data-item-order="0" data-item-id="bloc_1cws7931h1d9fq" data-item-class="Icon Stroke" data-item-index="none" data-renderer-id="0" transform="translate(747.0000610351562, 294.000244140625)"><g id="bloc_1cws7931h1d9fq-stroke" fill="none" stroke-linecap="round" stroke-linejoin="round" stroke-miterlimit="4" stroke="#17b0e3" stroke-width="2"><g><path d="M 11.071428 25C 11.071429 32.692539 17.307463 38.92857 25 38.92857C 32.692539 38.92857 38.92857 32.692539 38.92857 25C 38.92857 17.307463 32.692539 11.071429 25 11.071429C 17.307463 11.071429 11.071429 17.307463 11.071429 25M 15.142858 34.857143L 34.857143 15.142858"></path></g></g></g><g id="g-root-tx_no_1uo27qv1h1n4el-stroke" data-item-order="0" data-item-id="tx_no_1uo27qv1h1n4el" data-item-class="Label Stroke" data-item-index="none" data-renderer-id="0" transform="translate(583, 265.000244140625)"></g><g id="g-root-cu_1hf3lpz1h1n2mg-stroke" data-item-order="2" data-item-id="cu_1hf3lpz1h1n2mg" data-item-class="Curve Stroke" data-item-index="none" data-renderer-id="0" transform="translate(407, 51.000244140625)"><g id="cu_1hf3lpz1h1n2mg-stroke" fill="none" stroke-linecap="round" stroke-linejoin="round" stroke-miterlimit="4" stroke="#484848" stroke-width="2"><g><path d="M 10 10L 38 10L 64 10"></path><path d="M 58 16.5L 64.5 10L 58 3.5" stroke-dasharray="none"></path></g></g></g><g id="g-root-cu_1luamrb1h1n4zx-stroke" data-item-order="2" data-item-id="cu_1luamrb1h1n4zx" data-item-class="Curve Stroke" data-item-index="none" data-renderer-id="0" transform="translate(655.0016479492188, 51.000244140625)"><g id="cu_1luamrb1h1n4zx-stroke" fill="none" stroke-linecap="round" stroke-linejoin="round" stroke-miterlimit="4" stroke="#484848" stroke-width="2"><g><path d="M 10 10L 50 10L 88 10"></path><path d="M 82 16.5L 88.5 10L 82 3.5" stroke-dasharray="none"></path></g></g></g><g id="g-root-cu_4n35j1h1n3m2-stroke" data-item-order="2" data-item-id="cu_4n35j1h1n3m2" data-item-class="Curve Stroke" data-item-index="none" data-renderer-id="0" transform="translate(559, 99.00048828125)"><g id="cu_4n35j1h1n3m2-stroke" fill="none" stroke-linecap="round" stroke-linejoin="round" stroke-miterlimit="4" stroke="#484848" stroke-width="2"><g><path d="M 10 9.999756L 10 27.499756L 10 44.999756L 98 44.999756L 184 44.999756"></path><path d="M 178 51.499756L 184.5 44.999756L 178 38.499756" stroke-dasharray="none"></path></g></g></g><g id="g-root-cu_1cza3lj1h1n3er-stroke" data-item-order="2" data-item-id="cu_1cza3lj1h1n3er" data-item-class="Curve Stroke" data-item-index="none" data-renderer-id="0" transform="translate(171, 51.000244140625)"><g id="cu_1cza3lj1h1n3er-stroke" fill="none" stroke-linecap="round" stroke-linejoin="round" stroke-miterlimit="4" stroke="#484848" stroke-width="2"><g><path d="M 10 176L 24 176L 38 176L 38 93L 38 10L 52 10L 64 10"></path><path d="M 58 16.5L 64.5 10L 58 3.5" stroke-dasharray="none"></path></g></g></g><g id="g-root-cu_v6r4xj1h1n2tg-stroke" data-item-order="2" data-item-id="cu_v6r4xj1h1n2tg" data-item-class="Curve Stroke" data-item-index="none" data-renderer-id="0" transform="translate(171, 217.000244140625)"><g id="cu_v6r4xj1h1n2tg-stroke" fill="none" stroke-linecap="round" stroke-linejoin="round" stroke-miterlimit="4" stroke="#484848" stroke-width="2"><g><path d="M 10 10L 24 10L 38 10L 38 104L 38 198L 52 198L 64 198"></path><path d="M 58 204.5L 64.5 198L 58 191.5" stroke-dasharray="none"></path></g></g></g><g id="g-root-cu_4n35j1h1n3m0-stroke" data-item-order="2" data-item-id="cu_4n35j1h1n3m0" data-item-class="Curve Stroke" data-item-index="none" data-renderer-id="0" transform="translate(171, 217.000244140625)"><g id="cu_4n35j1h1n3m0-stroke" fill="none" stroke-linecap="round" stroke-linejoin="round" stroke-miterlimit="4" stroke="#484848" stroke-width="2"><g><path d="M 10 10L 38 10L 64 10"></path><path d="M 58 16.5L 64.5 10L 58 3.5" stroke-dasharray="none"></path></g></g></g><g id="g-root-cu_4kgl9z1h1n2tp-stroke" data-item-order="2" data-item-id="cu_4kgl9z1h1n2tp" data-item-class="Curve Stroke" data-item-index="none" data-renderer-id="0" transform="translate(407, 217.000244140625)"><g id="cu_4kgl9z1h1n2tp-stroke" fill="none" stroke-linecap="round" stroke-linejoin="round" stroke-miterlimit="4" stroke="#484848" stroke-width="2"><g><path d="M 10 10L 24 10L 38 10L 38 10L 38 10L 52 10L 64 10"></path><path d="M 58 16.5L 64.5 10L 58 3.5" stroke-dasharray="none"></path></g></g></g><g id="g-root-cu_hvamk71h1n4ei-stroke" data-item-order="2" data-item-id="cu_hvamk71h1n4ei" data-item-class="Curve Stroke" data-item-index="none" data-renderer-id="0" transform="translate(679.0025634765625, 217.000244140625)"><g id="cu_hvamk71h1n4ei-stroke" fill="none" stroke-linecap="round" stroke-linejoin="round" stroke-miterlimit="4" stroke="#484848" stroke-width="2"><g><path d="M 10 10L 24 10L 38 10L 38 10L 38 10L 52 10L 64 10"></path><path d="M 58 16.5L 64.5 10L 58 3.5" stroke-dasharray="none"></path></g></g></g><g id="g-root-cu_mb44on1h1n3m7-stroke" data-item-order="2" data-item-id="cu_mb44on1h1n3m7" data-item-class="Curve Stroke" data-item-index="none" data-renderer-id="0" transform="translate(571, 265.003173828125)"><g id="cu_mb44on1h1n3m7-stroke" fill="none" stroke-linecap="round" stroke-linejoin="round" stroke-miterlimit="4" stroke="#484848" stroke-width="2"><g><path d="M 10 10L 10 32L 10 54L 92 54L 172 54"></path><path d="M 166 60.5L 172.5 54L 166 47.5" stroke-dasharray="none"></path></g></g></g></g></g></svg>